<?xml version="1.0" encoding="utf-8"?>
<!-- Generator: Adobe Illustrator 24.0.0, SVG Export Plug-In . SVG Version: 6.00 Build 0)  -->
<svg version="1.1" id="Livello_1" xmlns="http://www.w3.org/2000/svg" xmlns:xlink="http://www.w3.org/1999/xlink" x="0px" y="0px"
	 viewBox="0 0 167.24 167.24" style="enable-background:new 0 0 167.24 167.24;" xml:space="preserve">
<style type="text/css">
	.st0{fill:#E30613;}
	.st1{fill-rule:evenodd;clip-rule:evenodd;fill:#FFFFFF;}
	.st2{fill:none;}
</style>
<rect class="st0" width="167.24" height="167.24"/>
<g>
	<path class="st1" d="M137.07,118.89v12.82h2.68c4.45,0,8.23-1.34,8.23-6.51c0-5.89-4.74-6.32-9.43-6.32 M137.07,135.45v15.79h-4.02
		v-36.08h5.93c3.11,0,6.32,0.1,8.95,1.91c2.68,1.87,4.07,5.02,4.07,8.23c0,2.92-1.2,5.89-3.44,7.75c-2.44,2.01-5.55,2.39-8.57,2.39
		h-2.92V135.45z M108.07,118.27c-8.28,0-14.79,6.75-14.79,14.93c0,8.13,6.6,14.93,14.79,14.93c8.18,0,14.78-6.8,14.78-14.93
		C122.86,125.02,116.35,118.27,108.07,118.27z M108.07,114.54c10.29,0,18.8,8.37,18.8,18.71c0,10.38-8.52,18.61-18.8,18.61
		c-10.29,0-18.81-8.23-18.81-18.61C89.27,122.91,97.79,114.54,108.07,114.54z M77.45,118.89v32.35h-4.02v-32.35h-8.71v-3.73h21.53
		v3.73H77.45z M59.99,120.14l-3.21,2.06c-1.43-2.49-3.16-3.92-6.22-3.92c-3.21,0-5.98,2.3-5.98,5.6c0,3.11,3.2,4.55,5.65,5.65
		l2.39,1.05c4.69,2.06,8.66,4.4,8.66,10.14c0,6.32-5.07,11.15-11.34,11.15c-5.79,0-10.1-3.73-11.25-9.33l3.92-1.1
		c0.53,3.68,3.35,6.7,7.23,6.7c3.88,0,7.42-2.97,7.42-7.03c0-4.21-3.3-5.65-6.65-7.18l-2.2-0.96c-4.21-1.91-7.85-4.07-7.85-9.24
		c0-5.6,4.74-9.19,10.1-9.19C54.67,114.54,58.07,116.6,59.99,120.14z"/>
	<path class="st1" d="M142.43,77.69v32.35h-4.02V77.69h-8.71v-3.73h21.53v3.73H142.43z M111.14,91.38l-9.76-17.42h4.59l7.37,13.59
		l7.37-13.59h4.59l-9.76,17.42l10.67,18.66h-4.59l-8.28-14.83l-8.28,14.83h-4.59L111.14,91.38z M77.93,110.04V73.96h18.71v3.73
		H81.95v10.72h14.26v3.73H81.95v14.16h14.69v3.73L77.93,110.04L77.93,110.04z M40.65,110.04V72.43l28.14,29.48V73.96h4.02v37.71
		L44.67,82.24v27.8H40.65z"/>
</g>
<rect class="st2" width="167.24" height="167.24"/>
</svg>
